<mxfile host="app.diagrams.net" agent="Mozilla/5.0 (iPad; CPU OS 18_1_1 like Mac OS X) AppleWebKit/605.1.15 (KHTML, like Gecko) CriOS/133.0.6943.84 Mobile/15E148 Safari/604.1" version="26.0.15">
  <diagram name="Page-1" id="mTLk7JrALbAII1nqvPS2">
    <mxGraphModel dx="1446" dy="567" grid="0" gridSize="10" guides="1" tooltips="1" connect="1" arrows="1" fold="1" page="0" pageScale="1" pageWidth="827" pageHeight="1169" math="0" shadow="0">
      <root>
        <mxCell id="0" />
        <mxCell id="1" parent="0" />
        <mxCell id="Ui6mhgjGIS9C5cT6wUwf-2" value="" style="whiteSpace=wrap;html=1;" vertex="1" parent="1">
          <mxGeometry x="-32" y="93" width="434" height="444" as="geometry" />
        </mxCell>
        <mxCell id="Ui6mhgjGIS9C5cT6wUwf-3" value="" style="rounded=0;whiteSpace=wrap;html=1;" vertex="1" parent="1">
          <mxGeometry x="372" y="95" width="30" height="31" as="geometry" />
        </mxCell>
        <mxCell id="Ui6mhgjGIS9C5cT6wUwf-4" value="" style="rounded=0;whiteSpace=wrap;html=1;" vertex="1" parent="1">
          <mxGeometry x="342" y="96" width="30" height="30" as="geometry" />
        </mxCell>
        <mxCell id="Ui6mhgjGIS9C5cT6wUwf-5" value="" style="rounded=0;whiteSpace=wrap;html=1;" vertex="1" parent="1">
          <mxGeometry x="312" y="96" width="30" height="30" as="geometry" />
        </mxCell>
        <mxCell id="Ui6mhgjGIS9C5cT6wUwf-11" value="" style="rounded=0;whiteSpace=wrap;html=1;" vertex="1" parent="1">
          <mxGeometry x="-32" y="128" width="60" height="20" as="geometry" />
        </mxCell>
        <mxCell id="Ui6mhgjGIS9C5cT6wUwf-12" value="" style="rounded=0;whiteSpace=wrap;html=1;direction=west;" vertex="1" parent="1">
          <mxGeometry x="28" y="127" width="60" height="20" as="geometry" />
        </mxCell>
        <mxCell id="Ui6mhgjGIS9C5cT6wUwf-13" value="" style="rounded=0;whiteSpace=wrap;html=1;" vertex="1" parent="1">
          <mxGeometry x="88" y="128" width="60" height="19" as="geometry" />
        </mxCell>
        <mxCell id="Ui6mhgjGIS9C5cT6wUwf-14" value="" style="rounded=0;whiteSpace=wrap;html=1;" vertex="1" parent="1">
          <mxGeometry x="148" y="128" width="60" height="20" as="geometry" />
        </mxCell>
      </root>
    </mxGraphModel>
  </diagram>
</mxfile>
